<mxfile host="www.draw.io" modified="2020-02-14T19:28:10.297Z" agent="Mozilla/5.0 (Macintosh; Intel Mac OS X 10_14_6) AppleWebKit/537.36 (KHTML, like Gecko) Chrome/79.0.3945.130 Safari/537.36" etag="aSUeg17GHf_SYs4DHHob" version="12.7.0" type="github">
  <diagram id="cUOeLzvA6jiwBTV3SdHB" name="Page-1">
    <mxGraphModel dx="1033" dy="613" grid="1" gridSize="5" guides="1" tooltips="1" connect="1" arrows="1" fold="1" page="1" pageScale="1" pageWidth="1169" pageHeight="827" math="0" shadow="0">
      <root>
        <mxCell id="0"/>
        <mxCell id="1" parent="0"/>
        <mxCell id="FoH0_RZipdTiMdWKK6F5-7" style="edgeStyle=orthogonalEdgeStyle;rounded=0;orthogonalLoop=1;jettySize=auto;html=1;exitX=1;exitY=0.5;exitDx=0;exitDy=0;strokeColor=#009900;" parent="1" target="FoH0_RZipdTiMdWKK6F5-3" edge="1">
          <mxGeometry relative="1" as="geometry">
            <mxPoint x="100" y="80" as="sourcePoint"/>
          </mxGeometry>
        </mxCell>
        <mxCell id="FoH0_RZipdTiMdWKK6F5-3" value="Preprocessing&lt;br&gt;Job" style="rounded=1;whiteSpace=wrap;html=1;absoluteArcSize=1;arcSize=14;strokeWidth=2;strokeColor=#009900;" parent="1" vertex="1">
          <mxGeometry x="160" y="30" width="100" height="100" as="geometry"/>
        </mxCell>
        <mxCell id="FoH0_RZipdTiMdWKK6F5-4" value="Model&lt;br&gt;Training&lt;br&gt;Job" style="rounded=1;whiteSpace=wrap;html=1;absoluteArcSize=1;arcSize=14;strokeWidth=2;strokeColor=#009900;" parent="1" vertex="1">
          <mxGeometry x="350" y="30" width="100" height="100" as="geometry"/>
        </mxCell>
        <mxCell id="FoH0_RZipdTiMdWKK6F5-5" value="Model&lt;br&gt;Validation&lt;br&gt;Job" style="rounded=1;whiteSpace=wrap;html=1;absoluteArcSize=1;arcSize=14;strokeWidth=2;strokeColor=#009900;" parent="1" vertex="1">
          <mxGeometry x="540" y="30" width="100" height="100" as="geometry"/>
        </mxCell>
        <mxCell id="FoH0_RZipdTiMdWKK6F5-24" value="Data" style="strokeWidth=2;html=1;shape=mxgraph.flowchart.database;whiteSpace=wrap;strokeColor=#0000CC;" parent="1" vertex="1">
          <mxGeometry x="40" y="50" width="60" height="60" as="geometry"/>
        </mxCell>
        <mxCell id="usYNcjVS9CeMYQW7xPBx-40" style="edgeStyle=orthogonalEdgeStyle;rounded=0;orthogonalLoop=1;jettySize=auto;html=1;entryX=0;entryY=0.5;entryDx=0;entryDy=0;strokeColor=#009900;exitX=1;exitY=0.5;exitDx=0;exitDy=0;" parent="1" source="FoH0_RZipdTiMdWKK6F5-3" target="FoH0_RZipdTiMdWKK6F5-4" edge="1">
          <mxGeometry relative="1" as="geometry">
            <mxPoint x="360" y="80" as="sourcePoint"/>
            <mxPoint x="300" y="85" as="targetPoint"/>
          </mxGeometry>
        </mxCell>
        <mxCell id="usYNcjVS9CeMYQW7xPBx-47" value="MODEL" style="strokeWidth=2;html=1;shape=mxgraph.flowchart.database;whiteSpace=wrap;strokeColor=#009900;" parent="1" vertex="1">
          <mxGeometry x="700" y="50" width="60" height="60" as="geometry"/>
        </mxCell>
        <mxCell id="IfejEkoSzzujs7gpXqe6-3" style="edgeStyle=orthogonalEdgeStyle;rounded=0;orthogonalLoop=1;jettySize=auto;html=1;entryX=0;entryY=0.5;entryDx=0;entryDy=0;strokeColor=#009900;exitX=1;exitY=0.5;exitDx=0;exitDy=0;" edge="1" parent="1" source="FoH0_RZipdTiMdWKK6F5-4" target="FoH0_RZipdTiMdWKK6F5-5">
          <mxGeometry relative="1" as="geometry">
            <mxPoint x="265" y="85" as="sourcePoint"/>
            <mxPoint x="355" y="85" as="targetPoint"/>
          </mxGeometry>
        </mxCell>
        <mxCell id="IfejEkoSzzujs7gpXqe6-4" style="edgeStyle=orthogonalEdgeStyle;rounded=0;orthogonalLoop=1;jettySize=auto;html=1;entryX=0;entryY=0.5;entryDx=0;entryDy=0;strokeColor=#009900;entryPerimeter=0;exitX=1;exitY=0.5;exitDx=0;exitDy=0;" edge="1" parent="1" source="FoH0_RZipdTiMdWKK6F5-5" target="usYNcjVS9CeMYQW7xPBx-47">
          <mxGeometry relative="1" as="geometry">
            <mxPoint x="280" y="90" as="sourcePoint"/>
            <mxPoint x="360" y="90" as="targetPoint"/>
          </mxGeometry>
        </mxCell>
      </root>
    </mxGraphModel>
  </diagram>
</mxfile>
